# xmcd
#
# Track frame offsets:
#	150
#	13326
#	26278
#	37457
#	55283
#	65207
#	82709
#	94052
#	111755
#	126540
#	139500
#	155303
#	169402
#	185409
#	199754
#
# Disc length: 2865 seconds
#
# Revision: 0
# Processed by: cddbd v1.5.1PL2 Copyright (c) Steve Scherf et al.
# Submitted via: dBpowerAMP V4.0
#
DISCID=d40b2f0f
DTITLE=Jacob Lyda - Back in the swing
DYEAR=2003
DGENRE=Country
TTITLE0=Goodbye Song
TTITLE1=Harm's Way
TTITLE2=Back In The Swing Of Things
TTITLE3=Sedona
TTITLE4=We're Gone
TTITLE5=Up To You And Me
TTITLE6=Whiskey'd Over
TTITLE7=8 Seconds From Being A Man
TTITLE8=The Hard Way
TTITLE9=You'll Get Love
TTITLE10=I Know Your Memory By Heart
TTITLE11=The Truth Lies
TTITLE12=Lonesome Doesn't Live Here Anymore
TTITLE13=She Showed Me A Little Bit More
TTITLE14=Tiny Band Of Gold
EXTD=
EXTT0=
EXTT1=
EXTT2=
EXTT3=
EXTT4=
EXTT5=
EXTT6=
EXTT7=
EXTT8=
EXTT9=
EXTT10=
EXTT11=
EXTT12=
EXTT13=
EXTT14=
PLAYORDER=
